HIERARCHY
ROOT Hips
{
	OFFSET 0.000000 0.000000 0.000000
	CHANNELS 6 Xposition Yposition Zposition Zrotation Yrotation Xrotation 
	JOINT LHipJoint
	{
		OFFSET 0.000000 0.000000 0.000000
		CHANNELS 3 Zrotation Yrotation Xrotation
		JOINT LeftUpLeg
		{
			OFFSET 1.363060 -1.794630 0.839290
			CHANNELS 3 Zrotation Yrotation Xrotation
			JOINT LeftLeg
			{
				OFFSET 2.448110 -6.726130 0.000000
				CHANNELS 3 Zrotation Yrotation Xrotation
				JOINT LeftFoot
				{
					OFFSET 2.562200 -7.039590 0.000000
					CHANNELS 3 Zrotation Yrotation Xrotation
					JOINT LeftToeBase
					{
						OFFSET 0.157640 -0.433110 2.322550
						CHANNELS 3 Zrotation Yrotation Xrotation
						End Site
						{
							OFFSET 0.000000 0.000000 0.000000
						}
					}
				}
			}
		}
	}
	JOINT RHipJoint
	{
		OFFSET 0.000000 0.000000 0.000000
		CHANNELS 3 Zrotation Yrotation Xrotation
		JOINT RightUpLeg
		{
			OFFSET -1.305520 -1.794630 0.839290
			CHANNELS 3 Zrotation Yrotation Xrotation
			JOINT RightLeg
			{
				OFFSET -2.542530 -6.985550 0.000000
				CHANNELS 3 Zrotation Yrotation Xrotation
				JOINT RightFoot
				{
					OFFSET -2.568260 -7.056230 0.000000
					CHANNELS 3 Zrotation Yrotation Xrotation
					JOINT RightToeBase
					{
						OFFSET -0.164730 -0.452590 2.363150
						CHANNELS 3 Zrotation Yrotation Xrotation
						End Site
						{
							OFFSET 0.000000 0.000000 0.000000
						}
					}
				}
			}
		}
	}
	JOINT LowerBack
	{
		OFFSET 0.000000 0.000000 0.000000
		CHANNELS 3 Zrotation Yrotation Xrotation
		JOINT Spine
		{
			OFFSET 0.028270 2.035590 -0.193380
			CHANNELS 3 Zrotation Yrotation Xrotation
			JOINT Spine1
			{
				OFFSET 0.056720 2.048850 -0.042750
				CHANNELS 3 Zrotation Yrotation Xrotation
				JOINT Neck
				{
					OFFSET 0.000000 0.000000 0.000000
					CHANNELS 3 Zrotation Yrotation Xrotation
					JOINT Neck1
					{
						OFFSET -0.054170 1.746240 0.172020
						CHANNELS 3 Zrotation Yrotation Xrotation
						JOINT Head
						{
							OFFSET 0.104070 1.761360 -0.123970
							CHANNELS 3 Zrotation Yrotation Xrotation
							End Site
							{
								OFFSET 0.000000 0.000000 0.000000
							}
						}
					}
				}
				JOINT LeftShoulder
				{
					OFFSET 0.000000 0.000000 0.000000
					CHANNELS 3 Zrotation Yrotation Xrotation
					JOINT LeftArm
					{
						OFFSET 3.362410 1.200890 -0.311210
						CHANNELS 3 Zrotation Yrotation Xrotation
						JOINT LeftForeArm
						{
							OFFSET 4.983000 -0.000000 -0.000000
							CHANNELS 3 Zrotation Yrotation Xrotation
							JOINT LeftHand
							{
								OFFSET 3.483560 -0.000000 -0.000000
								CHANNELS 3 Zrotation Yrotation Xrotation
								JOINT LeftFingerBase
								{
									OFFSET 0.000000 0.000000 0.000000
									CHANNELS 3 Zrotation Yrotation Xrotation
									JOINT LeftHandIndex1
									{
										OFFSET 0.715260 -0.000000 -0.000000
										CHANNELS 3 Zrotation Yrotation Xrotation
										End Site
										{
											OFFSET 0.000000 0.000000 0.000000
										}
									}
								}
								JOINT LThumb
								{
									OFFSET 0.000000 0.000000 0.000000
									CHANNELS 3 Zrotation Yrotation Xrotation
									End Site
									{
										OFFSET 0.000000 0.000000 0.000000
									}
								}
							}
						}
					}
				}
				JOINT RightShoulder
				{
					OFFSET 0.000000 0.000000 0.000000
					CHANNELS 3 Zrotation Yrotation Xrotation
					JOINT RightArm
					{
						OFFSET -3.136600 1.374050 -0.404650
						CHANNELS 3 Zrotation Yrotation Xrotation
						JOINT RightForeArm
						{
							OFFSET -5.241900 -0.000000 -0.000000
							CHANNELS 3 Zrotation Yrotation Xrotation
							JOINT RightHand
							{
								OFFSET -3.444170 -0.000000 -0.000000
								CHANNELS 3 Zrotation Yrotation Xrotation
								JOINT RightFingerBase
								{
									OFFSET 0.000000 0.000000 0.000000
									CHANNELS 3 Zrotation Yrotation Xrotation
									JOINT RightHandIndex1
									{
										OFFSET -0.622530 -0.000000 -0.000000
										CHANNELS 3 Zrotation Yrotation Xrotation
										End Site
										{
											OFFSET 0.000000 0.000000 0.000000
										}
									}
								}
								JOINT RThumb
								{
									OFFSET 0.000000 0.000000 0.000000
									CHANNELS 3 Zrotation Yrotation Xrotation
									End Site
									{
										OFFSET 0.000000 0.000000 0.000000
									}
								}
							}
						}
					}
				}
			}
		}
	}
}
MOTION
Frames: 6
Frame Time: 0.008333
3.474509 17.679224 -16.707579 0.769624 -7.693078 4.314663 -7.560089 -6.089232 -2.234366 -3.083388 -0.757364 -21.731926 1.588447 12.481609 34.090724 4.954637 -7.428380 13.896219 3.114300 10.877800 31.868900 5.675373 4.236789 -1.343482 15.012730 5.412259 -7.177478 -1.033548 -13.491731 34.898802 4.905775 -21.062743 -24.348088 -5.377800 -13.797100 42.430600 3.413942 2.373711 -1.448278 0.358343 2.696436 -4.371015 -4.815799 1.690898 2.738137 -2.187750 -2.465423 -5.895938 3.602964 -3.374112 10.209666 0.845800 -1.460000 1.140100 -1.854349 -8.191589 2.067337 -77.384262 -0.178906 29.395589 10.478145 -17.537693 -2.389807 1.084761 -0.252473 -5.943125 -5.264336 -11.757259 1.250700 -7.125000 0.000000 0.000000 -22.993400 18.910600 15.603500 1.582952 9.050864 2.254204 81.159723 -5.879523 10.593404 -11.783466 17.226789 -3.649550 0.063518 4.458175 5.989015 15.511662 -30.566000 -9.349400 7.125000 0.000000 0.000000 53.097500 -57.028800 -19.265100 
3.476489 17.677869 -16.702471 1.216063 -7.719892 4.194286 -7.613498 -6.108880 -2.201887 -3.541814 -0.622960 -21.718232 1.546829 12.486711 34.072927 4.957542 -7.519224 14.042586 3.255100 11.097000 32.607600 5.737134 4.263957 -1.263879 14.375008 5.330892 -7.154775 -1.099088 -13.468911 35.071690 2.889376 -15.423608 -24.923580 -0.400700 4.064000 -11.256900 3.053575 2.482351 -1.410211 0.236390 2.885172 -4.434826 -5.028078 1.757627 2.329062 -1.926402 -2.407923 -5.073135 3.671131 -3.325831 10.100656 0.839800 -1.437600 0.911600 -1.876297 -8.172108 2.078194 -77.161429 0.525775 31.565582 11.059484 -18.153746 -2.472921 0.876749 -0.243237 -8.754597 -2.304912 -10.445297 0.548400 -7.125000 0.000000 0.000000 -21.093300 20.144500 13.470800 1.531192 9.034522 2.208226 81.709703 -6.588178 10.605210 -11.803665 17.142618 -3.411084 0.282463 3.936557 7.005067 12.109264 -26.404310 -6.326300 7.125000 0.000000 0.000000 45.265500 -54.461800 -12.437400 
3.479304 17.679641 -16.706641 0.843094 -7.843538 4.383122 -7.581299 -6.108771 -2.233578 -3.160916 -0.765754 -21.743598 1.582982 12.478254 34.091920 4.950666 -7.439380 13.932845 3.265200 11.112400 32.660000 5.781126 4.273400 -1.234089 14.696781 5.650984 -7.215496 -1.124026 -13.461125 35.061100 1.499600 -11.813915 -25.737166 -0.135000 2.368400 -6.524800 3.528538 2.596650 -1.507552 0.234600 3.000670 -4.481092 -5.265041 1.805617 2.161611 -1.695735 -2.270104 -4.663675 3.667379 -3.141518 9.890959 0.804700 -1.346800 0.716500 -1.882918 -8.162284 2.090674 -77.025908 0.617653 31.860941 11.071224 -18.087790 -2.427600 0.764607 -0.158428 -8.677609 -0.117516 -10.710912 0.153900 -7.125000 0.000000 0.000000 -19.512900 19.785800 12.493900 1.523525 9.024716 2.208263 81.956215 -6.901127 10.570215 -11.697725 17.059534 -3.418089 0.345341 4.027346 7.558762 12.396262 -27.438707 -6.687600 7.125000 0.000000 0.000000 46.563000 -55.246500 -13.901900 
3.479199 17.680475 -16.707579 0.708161 -7.842535 4.466511 -7.572258 -6.117080 -2.257625 -3.010004 -0.786949 -21.776510 1.589610 12.471265 34.088138 4.981485 -7.511585 13.992085 3.337200 11.221800 33.031800 5.798691 4.287471 -1.225591 14.823593 5.666044 -7.268235 -1.066893 -13.455808 35.045019 1.185637 -11.571917 -27.343487 -0.006900 -0.535500 1.471500 3.645673 2.536861 -1.528784 0.281792 2.910390 -4.454066 -5.183849 1.769919 2.320265 -1.720187 -2.178312 -5.010464 3.599495 -3.004293 9.871033 0.764100 -1.275600 0.777100 -1.866468 -8.171755 2.086765 -77.154662 0.291884 31.597935 11.125432 -18.062174 -2.406533 0.648997 -0.046119 -8.520315 2.314416 -11.258899 -0.324100 -7.125000 0.000000 0.000000 -17.727800 19.102400 11.511300 1.567071 9.044513 2.207995 81.766849 -6.719673 11.247196 -11.568799 16.855589 -3.256470 0.571287 3.757551 8.272094 9.968584 -25.885461 -4.991100 7.125000 0.000000 0.000000 42.605000 -54.417500 -11.420800 
3.479408 17.681100 -16.708205 0.655047 -7.845508 4.520157 -7.568085 -6.125180 -2.275395 -2.948840 -0.784301 -21.819309 1.602069 12.480205 34.123833 4.996889 -7.558101 14.007066 3.360000 11.256200 33.148900 5.826970 4.296509 -1.206172 14.842225 5.699707 -7.280373 -1.067732 -13.445119 35.009572 0.529735 -10.179166 -28.372673 -0.002600 0.332000 -0.912100 3.706000 2.516525 -1.543061 0.295656 2.880366 -4.449169 -5.181241 1.756789 2.357551 -1.682381 -2.087717 -5.112360 3.571407 -2.878267 9.853366 0.736700 -1.211000 0.787200 -1.856030 -8.172425 2.086991 -77.189598 0.171035 31.719868 11.231257 -18.120910 -2.413972 0.536867 0.063002 -8.748183 4.620775 -11.845310 -0.838300 -7.125000 0.000000 0.000000 -16.033000 18.358200 10.589800 1.582617 9.053008 2.202922 81.758911 -6.736802 11.670128 -11.479375 16.720202 -3.149989 0.732824 3.565095 8.987131 8.350397 -24.920333 -3.955100 7.125000 0.000000 0.000000 40.080700 -53.867100 -9.972300 
3.478887 17.681726 -16.709456 0.600292 -7.826108 4.569701 -7.565230 -6.131867 -2.291935 -2.882042 -0.778424 -21.856266 1.607331 12.480184 34.128034 5.001996 -7.564773 14.031331 3.356600 11.251000 33.131300 5.847071 4.305345 -1.196594 14.886817 5.738606 -7.293552 -1.054407 -13.441859 34.991697 0.134200 -9.520906 -29.367336 -0.001200 -0.222000 0.610100 3.746974 2.470093 -1.548219 0.321045 2.816037 -4.433996 -5.134292 1.729758 2.448014 -1.691878 -2.006297 -5.339109 3.541920 -2.762967 9.881442 0.715100 -1.151200 0.846400 -1.842063 -8.176392 2.084864 -77.256179 -0.034308 31.668780 11.290790 -18.141051 -2.422718 0.455527 0.162366 -8.776189 6.458192 -12.517296 -1.312000 -7.125000 0.000000 0.000000 -14.682800 17.529400 9.910800 1.602322 9.063884 2.201133 81.689410 -6.670922 12.125367 -11.400254 16.603262 -3.066386 0.876008 3.407314 9.625410 6.980471 -24.249929 -3.143400 7.125000 0.000000 0.000000 38.096200 -53.501600 -8.985100 
